<mxfile host="app.diagrams.net" agent="Mozilla/5.0 (Macintosh; Intel Mac OS X 10_15_7) AppleWebKit/537.36 (KHTML, like Gecko) Chrome/123.0.0.0 Safari/537.36" version="24.7.17">
  <diagram name="Page-1" id="WceBISq8T1EZhYCdbL_R">
    <mxGraphModel dx="1590" dy="1010" grid="1" gridSize="10" guides="1" tooltips="1" connect="1" arrows="1" fold="1" page="1" pageScale="1" pageWidth="827" pageHeight="1169" math="0" shadow="0">
      <root>
        <mxCell id="0" />
        <mxCell id="1" parent="0" />
        <mxCell id="2ToQKqlhkzVBuYSjk8Px-1" value="Client" style="shape=umlActor;verticalLabelPosition=bottom;verticalAlign=top;html=1;" parent="1" vertex="1">
          <mxGeometry x="50" y="380" width="40" height="80" as="geometry" />
        </mxCell>
        <mxCell id="aZYy7vDdUJGhFW-z3EID-1" value="" style="rounded=0;whiteSpace=wrap;html=1;" vertex="1" parent="1">
          <mxGeometry x="200" y="80" width="440" height="950" as="geometry" />
        </mxCell>
        <mxCell id="aZYy7vDdUJGhFW-z3EID-2" value="" style="ellipse;whiteSpace=wrap;html=1;" vertex="1" parent="1">
          <mxGeometry x="290" y="160" width="260" height="70" as="geometry" />
        </mxCell>
        <mxCell id="aZYy7vDdUJGhFW-z3EID-3" value="&lt;font style=&quot;font-size: 18px;&quot;&gt;Register with the system&lt;/font&gt;" style="text;html=1;align=center;verticalAlign=middle;whiteSpace=wrap;rounded=0;" vertex="1" parent="1">
          <mxGeometry x="320" y="180" width="200" height="30" as="geometry" />
        </mxCell>
        <mxCell id="aZYy7vDdUJGhFW-z3EID-4" value="" style="ellipse;whiteSpace=wrap;html=1;" vertex="1" parent="1">
          <mxGeometry x="290" y="255" width="260" height="70" as="geometry" />
        </mxCell>
        <mxCell id="aZYy7vDdUJGhFW-z3EID-5" value="&lt;font style=&quot;font-size: 18px;&quot;&gt;Take on Offerings&lt;/font&gt;" style="text;html=1;align=center;verticalAlign=middle;whiteSpace=wrap;rounded=0;" vertex="1" parent="1">
          <mxGeometry x="320" y="275" width="200" height="30" as="geometry" />
        </mxCell>
        <mxCell id="aZYy7vDdUJGhFW-z3EID-6" value="" style="ellipse;whiteSpace=wrap;html=1;" vertex="1" parent="1">
          <mxGeometry x="285" y="350" width="270" height="70" as="geometry" />
        </mxCell>
        <mxCell id="aZYy7vDdUJGhFW-z3EID-7" value="&lt;font style=&quot;font-size: 18px;&quot;&gt;View Available Offerings&lt;/font&gt;" style="text;html=1;align=center;verticalAlign=middle;whiteSpace=wrap;rounded=0;" vertex="1" parent="1">
          <mxGeometry x="320" y="370" width="200" height="30" as="geometry" />
        </mxCell>
        <mxCell id="aZYy7vDdUJGhFW-z3EID-8" value="" style="ellipse;whiteSpace=wrap;html=1;" vertex="1" parent="1">
          <mxGeometry x="290" y="450" width="260" height="70" as="geometry" />
        </mxCell>
        <mxCell id="aZYy7vDdUJGhFW-z3EID-9" value="&lt;font style=&quot;font-size: 18px;&quot;&gt;Make a Booking&lt;/font&gt;" style="text;html=1;align=center;verticalAlign=middle;whiteSpace=wrap;rounded=0;" vertex="1" parent="1">
          <mxGeometry x="345" y="470" width="150" height="30" as="geometry" />
        </mxCell>
        <mxCell id="aZYy7vDdUJGhFW-z3EID-10" value="" style="rounded=0;whiteSpace=wrap;html=1;" vertex="1" parent="1">
          <mxGeometry x="310" y="80" width="230" height="40" as="geometry" />
        </mxCell>
        <mxCell id="aZYy7vDdUJGhFW-z3EID-11" value="&lt;b&gt;&lt;font style=&quot;font-size: 17px;&quot;&gt;Online Booking&lt;/font&gt;&lt;/b&gt;" style="text;html=1;align=center;verticalAlign=middle;whiteSpace=wrap;rounded=0;" vertex="1" parent="1">
          <mxGeometry x="342" y="85" width="166" height="30" as="geometry" />
        </mxCell>
        <mxCell id="aZYy7vDdUJGhFW-z3EID-12" value="" style="endArrow=none;html=1;rounded=0;entryX=0;entryY=0.5;entryDx=0;entryDy=0;" edge="1" parent="1" target="aZYy7vDdUJGhFW-z3EID-2">
          <mxGeometry width="50" height="50" relative="1" as="geometry">
            <mxPoint x="100" y="400" as="sourcePoint" />
            <mxPoint x="290" y="190" as="targetPoint" />
          </mxGeometry>
        </mxCell>
        <mxCell id="aZYy7vDdUJGhFW-z3EID-13" value="" style="endArrow=none;html=1;rounded=0;entryX=0;entryY=0.5;entryDx=0;entryDy=0;" edge="1" parent="1" target="aZYy7vDdUJGhFW-z3EID-6">
          <mxGeometry width="50" height="50" relative="1" as="geometry">
            <mxPoint x="110" y="410" as="sourcePoint" />
            <mxPoint x="370" y="330" as="targetPoint" />
            <Array as="points" />
          </mxGeometry>
        </mxCell>
        <mxCell id="aZYy7vDdUJGhFW-z3EID-14" value="" style="endArrow=none;html=1;rounded=0;entryX=0;entryY=0.5;entryDx=0;entryDy=0;" edge="1" parent="1" target="aZYy7vDdUJGhFW-z3EID-8">
          <mxGeometry width="50" height="50" relative="1" as="geometry">
            <mxPoint x="100" y="420" as="sourcePoint" />
            <mxPoint x="400" y="370" as="targetPoint" />
          </mxGeometry>
        </mxCell>
      </root>
    </mxGraphModel>
  </diagram>
</mxfile>
